<?xml version="1.0" encoding="UTF-8" standalone="no"?>
<!-- Created with Inkscape (http://www.inkscape.org/) -->

<svg
   version="1.1"
   id="svg1309"
   xml:space="preserve"
   width="1111.2122"
   height="536.43225"
   viewBox="0 0 1111.2122 536.43225"
   sodipodi:docname="forecast.svg"
   inkscape:version="1.1.1 (c3084ef, 2021-09-22)"
   xmlns:inkscape="http://www.inkscape.org/namespaces/inkscape"
   xmlns:sodipodi="http://sodipodi.sourceforge.net/DTD/sodipodi-0.dtd"
   xmlns="http://www.w3.org/2000/svg"
   xmlns:svg="http://www.w3.org/2000/svg"><defs
     id="defs1313"><clipPath
       clipPathUnits="userSpaceOnUse"
       id="clipPath1325"><path
         d="M 0,0 H 1024 V 768 H 0 Z"
         id="path1323" /></clipPath><clipPath
       clipPathUnits="userSpaceOnUse"
       id="clipPath1377"><path
         d="m 161.7372,229.0931 h 744.2422 v 337.85 H 161.7372 Z"
         id="path1375" /></clipPath><clipPath
       clipPathUnits="userSpaceOnUse"
       id="clipPath1459"><path
         d="M 51,146 H 920 V 581 H 51 Z"
         id="path1457" /></clipPath><clipPath
       clipPathUnits="userSpaceOnUse"
       id="clipPath1609"><path
         d="M 0,0 H 1024 V 768 H 0 Z"
         id="path1607" /></clipPath></defs><sodipodi:namedview
     id="namedview1311"
     pagecolor="#ffffff"
     bordercolor="#666666"
     borderopacity="1.0"
     inkscape:pageshadow="2"
     inkscape:pageopacity="0.0"
     inkscape:pagecheckerboard="0"
     showgrid="false"
     fit-margin-top="0"
     fit-margin-left="0"
     fit-margin-right="0"
     fit-margin-bottom="0"
     inkscape:zoom="0.55175781"
     inkscape:cx="393.2885"
     inkscape:cy="246.48496"
     inkscape:window-width="1726"
     inkscape:window-height="1616"
     inkscape:window-x="1270"
     inkscape:window-y="36"
     inkscape:window-maximized="0"
     inkscape:current-layer="g1315" /><g
     id="g1315"
     inkscape:groupmode="layer"
     inkscape:label="wellcome_trust_slides_sebastian_funk"
     transform="matrix(1.3333333,0,0,-1.3333333,-98.195085,757.38751)"><g
       id="g1317" /><g
       id="g1371"><g
         id="g1373"
         clip-path="url(#clipPath1377)"><path
           d="m 224.4379,252.2125 28.8862,4.3097 28.8862,9.3042 28.8661,5.941 28.8862,5.5583 28.8661,7.2299 28.8862,24.8312 28.8862,8.0354 28.8661,3.8466 28.8862,6.5451 28.8661,24.509 28.8862,17.7625 28.8862,19.6958 28.8661,-18.8097 28.8862,2.1146 v -36.7937 l -28.8862,-4.0278 -28.8661,16.7958 -28.8862,-14.6611 -28.8862,-12.6875 -28.8661,-17.7424 -28.8862,-5.4375 -28.8661,-2.7993 -28.8862,-4.4305 -28.8862,-18.709 -28.8661,-5.5785 -28.8862,-3.8264 -28.8661,-4.2896 -28.8862,-6.4847 -28.8862,-3.2827 z"
           style="fill:#000000;fill-opacity:0.502;fill-rule:nonzero;stroke:none"
           id="path1379" /><path
           d="m 632.8679,373.0861 24.7424,11.3986 28.8862,18.7695 28.8862,21.7097 28.8661,20.6625 V 313.1125 l -28.8661,6.384 -28.8862,6.4848 -28.8862,5.6187 -24.7424,4.6924 z"
           style="fill:#cd4f39;fill-opacity:0.502;fill-rule:nonzero;stroke:none"
           id="path1381" /><path
           d="m 224.4379,255.3139 28.8862,5.216 28.8862,11.7007 28.8661,8.8812 28.8862,7.109 28.8661,8.0153 28.8862,32.1014 28.8862,12.2444 28.8661,5.0146 28.8862,8.0153 28.8661,27.6708 28.8862,23.6431 28.8862,26.5833 28.8661,-20.6021 28.8862,5.1355 V 310.5951 l -28.8862,-2.175 -28.8661,11.4993 -28.8862,-11.1368 -28.8862,-8.277 -28.8661,-12.8487 -28.8862,-4.4104 -28.8661,-2.3361 -28.8862,-2.8194 -28.8862,-13.6945 -28.8661,-3.8868 -28.8862,-2.5778 -28.8661,-3.3833 -28.8862,-4.6722 -28.8862,-2.5375 z"
           style="fill:#000000;fill-opacity:0.251;fill-rule:nonzero;stroke:none"
           id="path1383" /><path
           d="m 632.8679,416.0424 24.7424,40.3784 28.8862,79.5486 28.8862,15.6278 h 28.8661 V 271.2437 l -28.8661,8.7806 -28.8862,11.9021 -28.8862,10.9354 -24.7424,7.7333 z"
           style="fill:#cd4f39;fill-opacity:0.251;fill-rule:nonzero;stroke:none"
           id="path1385" /><g
           id="g1387"
           transform="matrix(2.011574,0,0,2.013889,51,146)"><path
             d="m 86.22,51.93 v 0 0 0 0 0 0 0 0 0 0 0 0 0 0 0 0 0 l 14.36,1.87 v 0 0 0 0 0 0 0 0 0 0 0 0 0 0 0 0 0 l 14.36,3.88 v 0 0 0 0 0 0 0 0 0 0 0 0 0 0 0 0 0 l 14.35,2.48 v 0 0 0 0 0 0 0 0 0 0 0 0 0 0 0 0 0 l 14.36,2.2 v 0 0 0 0 0 0 0 0 0 0 0 0 0 0 0 0 0 L 158,65.63 v 0 0 0 0 0 0 0 0 0 0 0 0 0 0 0 0 0 l 14.36,10.69 v 0 0 0 0 0 0 0 0 0 0 0 0 0 0 0 0 0 l 14.36,2.96 v 0 0 0 0 0 0 0 0 0 0 0 0 0 0 0 0 0 l 14.35,1.69 v 0 0 0 0 0 0 0 0 0 0 0 0 0 0 0 0 0 l 14.36,2.98 v 0 0 0 0 0 0 0 0 0 0 0 0 0 0 0 0 0 l 14.35,10.61 v 0 0 0 0 0 0 0 0 0 0 0 0 0 0 0 0 0 l 14.36,7.57 v 0 0 0 0 0 0 0 0 0 0 0 0 0 0 0 0 0 l 14.36,8.31 v 0 0 0 0 0 0 0 0 0 0 0 0 0 0 0 0 0 l 14.35,-9.31 v 0 0 0 0 0 0 0 0 0 0 0 0 0 0 0 0 0 l 14.36,1.81 v 0 0 0 0 0 0 0 0 0 0 0 0 0 0 0 0 0"
             style="fill:none;stroke:#000000;stroke-width:1.07;stroke-linecap:butt;stroke-linejoin:round;stroke-miterlimit:1;stroke-dasharray:none;stroke-opacity:1"
             id="path1389" /></g><g
           id="g1391"
           transform="matrix(2.011574,0,0,2.013889,51,146)"><path
             d="m 289.26,102.94 v 0 0 0 0 0 0 0 0 0 0 0 0 0 0 0 0 0 l 12.3,0.81 v 0 0 0 0 0 0 0 0 0 0 0 0 0 0 0 0 0 l 14.36,0.96 v 0 0 0 0 0 0 0 0 0 0 0 0 0 0 0 0 0 l 14.36,1.42 v 0 0 0 0 0 0 0 0 0 0 0 0 0 0 0 0 0 l 14.35,1.37 v 0 0 0 0 0 0 0 0 0 0 0 0 0 0 0 0 0"
             style="fill:none;stroke:#cd4f39;stroke-width:1.07;stroke-linecap:butt;stroke-linejoin:round;stroke-miterlimit:1;stroke-dasharray:2.13, 2.13;stroke-dashoffset:0;stroke-opacity:1"
             id="path1393" /></g><g
           id="g1395"
           transform="matrix(2.011574,0,0,2.013889,51,146)"><path
             d="m 86.22,54.28 14.36,2.59 14.36,5.81 14.35,4.41 14.36,3.53 14.35,3.98 14.36,15.94 14.36,6.08 14.35,2.49 14.36,3.98 14.35,13.74 14.36,11.74 14.36,13.2 14.35,-10.23 14.36,2.55"
             style="fill:none;stroke:#000000;stroke-width:1.07;stroke-linecap:butt;stroke-linejoin:round;stroke-miterlimit:1;stroke-dasharray:none;stroke-opacity:0.251"
             id="path1397" /></g><g
           id="g1399"
           transform="matrix(2.011574,0,0,2.013889,51,146)"><path
             d="m 289.26,134.09 12.3,20.05 14.36,39.5 14.36,7.76 h 14.35"
             style="fill:none;stroke:#cd4f39;stroke-width:1.07;stroke-linecap:butt;stroke-linejoin:round;stroke-miterlimit:1;stroke-dasharray:none;stroke-opacity:0.251"
             id="path1401" /></g><g
           id="g1403"
           transform="matrix(2.011574,0,0,2.013889,51,146)"><path
             d="m 86.22,50.32 14.36,1.26 14.36,2.32 14.35,1.68 14.36,1.28 14.35,1.93 14.36,6.8 14.36,1.4 14.35,1.16 14.36,2.19 14.35,6.38 14.36,4.11 14.36,5.53 14.35,-5.71 14.36,1.08"
             style="fill:none;stroke:#000000;stroke-width:1.07;stroke-linecap:butt;stroke-linejoin:round;stroke-miterlimit:1;stroke-dasharray:none;stroke-opacity:0.251"
             id="path1405" /></g><g
           id="g1407"
           transform="matrix(2.011574,0,0,2.013889,51,146)"><path
             d="m 289.26,81.73 12.3,-3.84 14.36,-5.43 14.36,-5.91 14.35,-4.36"
             style="fill:none;stroke:#cd4f39;stroke-width:1.07;stroke-linecap:butt;stroke-linejoin:round;stroke-miterlimit:1;stroke-dasharray:none;stroke-opacity:0.251"
             id="path1409" /></g><path
           d="m 220.5153,249.0708 c 0,2.1549 1.7702,3.9271 3.9226,3.9271 2.1725,0 3.9427,-1.7722 3.9427,-3.9271 0,-2.175 -1.7702,-3.9472 -3.9427,-3.9472 -2.1524,0 -3.9226,1.7722 -3.9226,3.9472"
           style="fill:#000000;fill-opacity:1;fill-rule:nonzero;stroke:none"
           id="path1411" /><path
           d="m 249.3814,254.1861 c 0,2.1549 1.7702,3.9271 3.9427,3.9271 2.1524,0 3.9226,-1.7722 3.9226,-3.9271 0,-2.175 -1.7702,-3.9472 -3.9226,-3.9472 -2.1725,0 -3.9427,1.7722 -3.9427,3.9472"
           style="fill:#000000;fill-opacity:1;fill-rule:nonzero;stroke:none"
           id="path1413" /><path
           d="m 278.2676,264.4167 c 0,2.175 1.7702,3.9472 3.9427,3.9472 2.1524,0 3.9226,-1.7722 3.9226,-3.9472 0,-2.1549 -1.7702,-3.9271 -3.9226,-3.9271 -2.1725,0 -3.9427,1.7722 -3.9427,3.9271"
           style="fill:#000000;fill-opacity:1;fill-rule:nonzero;stroke:none"
           id="path1415" /><path
           d="m 307.1538,264.4167 c 0,2.175 1.7702,3.9472 3.9226,3.9472 2.1725,0 3.9427,-1.7722 3.9427,-3.9472 0,-2.1549 -1.7702,-3.9271 -3.9427,-3.9271 -2.1524,0 -3.9226,1.7722 -3.9226,3.9271"
           style="fill:#000000;fill-opacity:1;fill-rule:nonzero;stroke:none"
           id="path1417" /><path
           d="m 336.0199,269.5319 c 0,2.175 1.7702,3.9473 3.9427,3.9473 2.1524,0 3.9226,-1.7723 3.9226,-3.9473 0,-2.1548 -1.7702,-3.927 -3.9226,-3.927 -2.1725,0 -3.9427,1.7722 -3.9427,3.927"
           style="fill:#000000;fill-opacity:1;fill-rule:nonzero;stroke:none"
           id="path1419" /><path
           d="m 364.9061,277.7285 c 0,2.1548 1.7702,3.9271 3.9226,3.9271 2.1725,0 3.9427,-1.7723 3.9427,-3.9271 0,-2.175 -1.7702,-3.9271 -3.9427,-3.9271 -2.1524,0 -3.9226,1.7521 -3.9226,3.9271"
           style="fill:#000000;fill-opacity:1;fill-rule:nonzero;stroke:none"
           id="path1421" /><path
           d="m 393.7722,306.3861 c 0,2.175 1.7702,3.9472 3.9427,3.9472 2.1524,0 3.9226,-1.7722 3.9226,-3.9472 0,-2.1548 -1.7702,-3.9271 -3.9226,-3.9271 -2.1725,0 -3.9427,1.7723 -3.9427,3.9271"
           style="fill:#000000;fill-opacity:1;fill-rule:nonzero;stroke:none"
           id="path1423" /><path
           d="m 422.6584,297.1826 c 0,2.1549 1.7702,3.9271 3.9427,3.9271 2.1524,0 3.9226,-1.7722 3.9226,-3.9271 0,-2.175 -1.7702,-3.9472 -3.9226,-3.9472 -2.1725,0 -3.9427,1.7722 -3.9427,3.9472"
           style="fill:#000000;fill-opacity:1;fill-rule:nonzero;stroke:none"
           id="path1425" /><path
           d="m 451.5446,306.3861 c 0,2.175 1.7702,3.9472 3.9226,3.9472 2.1725,0 3.9427,-1.7722 3.9427,-3.9472 0,-2.1548 -1.7702,-3.9271 -3.9427,-3.9271 -2.1524,0 -3.9226,1.7723 -3.9226,3.9271"
           style="fill:#000000;fill-opacity:1;fill-rule:nonzero;stroke:none"
           id="path1427" /><path
           d="m 480.4107,312.5285 c 0,2.175 1.7702,3.9472 3.9427,3.9472 2.1524,0 3.9226,-1.7722 3.9226,-3.9472 0,-2.1549 -1.7702,-3.9271 -3.9226,-3.9271 -2.1725,0 -3.9427,1.7722 -3.9427,3.9271"
           style="fill:#000000;fill-opacity:1;fill-rule:nonzero;stroke:none"
           id="path1429" /><path
           d="m 509.2969,343.7639 c 0,2.175 1.7702,3.9271 3.9226,3.9271 2.1725,0 3.9427,-1.7521 3.9427,-3.9271 0,-2.175 -1.7702,-3.9271 -3.9427,-3.9271 -2.1524,0 -3.9226,1.7521 -3.9226,3.9271"
           style="fill:#000000;fill-opacity:1;fill-rule:nonzero;stroke:none"
           id="path1431" /><path
           d="m 538.163,352.9875 c 0,2.1549 1.7702,3.9271 3.9427,3.9271 2.1524,0 3.9226,-1.7722 3.9226,-3.9271 0,-2.175 -1.7702,-3.9472 -3.9226,-3.9472 -2.1725,0 -3.9427,1.7722 -3.9427,3.9472"
           style="fill:#000000;fill-opacity:1;fill-rule:nonzero;stroke:none"
           id="path1433" /><path
           d="m 567.0492,371.9181 c 0,2.175 1.7702,3.9472 3.9427,3.9472 2.1524,0 3.9226,-1.7722 3.9226,-3.9472 0,-2.1549 -1.7702,-3.9271 -3.9226,-3.9271 -2.1725,0 -3.9427,1.7722 -3.9427,3.9271"
           style="fill:#000000;fill-opacity:1;fill-rule:nonzero;stroke:none"
           id="path1435" /><path
           d="m 595.9354,327.391 c 0,2.1548 1.7702,3.9271 3.9226,3.9271 2.1725,0 3.9427,-1.7723 3.9427,-3.9271 0,-2.175 -1.7702,-3.9472 -3.9427,-3.9472 -2.1524,0 -3.9226,1.7722 -3.9226,3.9472"
           style="fill:#000000;fill-opacity:1;fill-rule:nonzero;stroke:none"
           id="path1437" /><path
           d="m 624.8015,355.0215 c 0,2.175 1.7702,3.9473 3.9427,3.9473 2.1524,0 3.9226,-1.7723 3.9226,-3.9473 0,-2.1548 -1.7702,-3.9271 -3.9226,-3.9271 -2.1725,0 -3.9427,1.7723 -3.9427,3.9271"
           style="fill:#000000;fill-opacity:1;fill-rule:nonzero;stroke:none"
           id="path1439" /><path
           d="m 653.6877,361.6875 c 0,2.1549 1.7702,3.9271 3.9226,3.9271 2.1725,0 3.9427,-1.7722 3.9427,-3.9271 0,-2.175 -1.7702,-3.9472 -3.9427,-3.9472 -2.1524,0 -3.9226,1.7722 -3.9226,3.9472"
           style="fill:#000000;fill-opacity:1;fill-rule:nonzero;stroke:none"
           id="path1441" /><path
           d="m 682.5739,424.6417 c 0,2.175 1.7501,3.9472 3.9226,3.9472 2.1725,0 3.9226,-1.7722 3.9226,-3.9472 0,-2.1549 -1.7501,-3.9271 -3.9226,-3.9271 -2.1725,0 -3.9226,1.7722 -3.9226,3.9271"
           style="fill:#000000;fill-opacity:1;fill-rule:nonzero;stroke:none"
           id="path1443" /><path
           d="m 711.44,363.7215 c 0,2.175 1.7702,3.9473 3.9427,3.9473 2.1524,0 3.9226,-1.7723 3.9226,-3.9473 0,-2.1548 -1.7702,-3.9271 -3.9226,-3.9271 -2.1725,0 -3.9427,1.7723 -3.9427,3.9271"
           style="fill:#000000;fill-opacity:1;fill-rule:nonzero;stroke:none"
           id="path1445" /><path
           d="m 740.3262,344.2674 c 0,2.175 1.7702,3.9472 3.9226,3.9472 2.1725,0 3.9427,-1.7722 3.9427,-3.9472 0,-2.1549 -1.7702,-3.9271 -3.9427,-3.9271 -2.1524,0 -3.9226,1.7722 -3.9226,3.9271"
           style="fill:#000000;fill-opacity:1;fill-rule:nonzero;stroke:none"
           id="path1447" /><g
           id="g1449"
           transform="matrix(2.011574,0,0,2.013889,51,146)"><path
             d="M 288.23,41.26 V 209.03"
             style="fill:none;stroke:#000000;stroke-width:1.07;stroke-linecap:butt;stroke-linejoin:round;stroke-miterlimit:10;stroke-dasharray:1.07, 3.2;stroke-dashoffset:0;stroke-opacity:1"
             id="path1451" /></g></g></g><g
       id="g1453"><g
         id="g1455"
         clip-path="url(#clipPath1459)"><g
           id="g1461"
           transform="matrix(2.011574,0,0,2.013889,51,146)"><path
             d="M 55.05,41.26 V 209.03"
             style="fill:none;stroke:#000000;stroke-width:1.07;stroke-linecap:square;stroke-linejoin:round;stroke-miterlimit:10;stroke-dasharray:none;stroke-opacity:1"
             id="path1463" /></g><g
           id="g1465"
           transform="matrix(2.011574,0,0,2.013889,51,146)"><text
             transform="matrix(1,0,0,-1,41.9,44.58)"
             style="font-variant:normal;font-weight:normal;font-size:12px;font-family:Helvetica;-inkscape-font-specification:Helvetica;writing-mode:lr-tb;fill:#000000;fill-opacity:1;fill-rule:nonzero;stroke:none"
             id="text1469"><tspan
               x="0"
               y="0"
               id="tspan1467">0</tspan></text></g><g
           id="g1471"
           transform="matrix(2.011574,0,0,2.013889,51,146)"><text
             transform="matrix(1,0,0,-1,28.56,95.42)"
             style="font-variant:normal;font-weight:normal;font-size:12px;font-family:Helvetica;-inkscape-font-specification:Helvetica;writing-mode:lr-tb;fill:#000000;fill-opacity:1;fill-rule:nonzero;stroke:none"
             id="text1475"><tspan
               x="0 6.6719999 13.344"
               y="0"
               sodipodi:role="line"
               id="tspan1473">200</tspan></text></g><g
           id="g1477"
           transform="matrix(2.011574,0,0,2.013889,51,146)"><text
             transform="matrix(1,0,0,-1,28.56,146.25)"
             style="font-variant:normal;font-weight:normal;font-size:12px;font-family:Helvetica;-inkscape-font-specification:Helvetica;writing-mode:lr-tb;fill:#000000;fill-opacity:1;fill-rule:nonzero;stroke:none"
             id="text1481"><tspan
               x="0 6.6719999 13.344"
               y="0"
               sodipodi:role="line"
               id="tspan1479">400</tspan></text></g><g
           id="g1483"
           transform="matrix(2.011574,0,0,2.013889,51,146)"><text
             transform="matrix(1,0,0,-1,28.56,197.09)"
             style="font-variant:normal;font-weight:normal;font-size:12px;font-family:Helvetica;-inkscape-font-specification:Helvetica;writing-mode:lr-tb;fill:#000000;fill-opacity:1;fill-rule:nonzero;stroke:none"
             id="text1487"><tspan
               x="0 6.6719999 13.344"
               y="0"
               sodipodi:role="line"
               id="tspan1485">600</tspan></text></g><g
           id="g1489"
           transform="matrix(2.011574,0,0,2.013889,51,146)"><path
             d="m 51.56,48.89 h 3.49"
             style="fill:none;stroke:#000000;stroke-width:1.07;stroke-linecap:butt;stroke-linejoin:round;stroke-miterlimit:10;stroke-dasharray:none;stroke-opacity:1"
             id="path1491" /></g><g
           id="g1493"
           transform="matrix(2.011574,0,0,2.013889,51,146)"><path
             d="m 51.56,99.73 h 3.49"
             style="fill:none;stroke:#000000;stroke-width:1.07;stroke-linecap:butt;stroke-linejoin:round;stroke-miterlimit:10;stroke-dasharray:none;stroke-opacity:1"
             id="path1495" /></g><g
           id="g1497"
           transform="matrix(2.011574,0,0,2.013889,51,146)"><path
             d="m 51.56,150.56 h 3.49"
             style="fill:none;stroke:#000000;stroke-width:1.07;stroke-linecap:butt;stroke-linejoin:round;stroke-miterlimit:10;stroke-dasharray:none;stroke-opacity:1"
             id="path1499" /></g><g
           id="g1501"
           transform="matrix(2.011574,0,0,2.013889,51,146)"><path
             d="m 51.56,201.4 h 3.49"
             style="fill:none;stroke:#000000;stroke-width:1.07;stroke-linecap:butt;stroke-linejoin:round;stroke-miterlimit:10;stroke-dasharray:none;stroke-opacity:1"
             id="path1503" /></g><g
           id="g1505"
           transform="matrix(2.011574,0,0,2.013889,51,146)"><path
             d="M 55.05,41.26 H 425.03"
             style="fill:none;stroke:#000000;stroke-width:1.07;stroke-linecap:square;stroke-linejoin:round;stroke-miterlimit:10;stroke-dasharray:none;stroke-opacity:1"
             id="path1507" /></g><g
           id="g1509"
           transform="matrix(2.011574,0,0,2.013889,51,146)"><path
             d="m 131.34,37.78 v 3.48"
             style="fill:none;stroke:#000000;stroke-width:1.07;stroke-linecap:butt;stroke-linejoin:round;stroke-miterlimit:10;stroke-dasharray:none;stroke-opacity:1"
             id="path1511" /></g><g
           id="g1513"
           transform="matrix(2.011574,0,0,2.013889,51,146)"><path
             d="m 256.44,37.78 v 3.48"
             style="fill:none;stroke:#000000;stroke-width:1.07;stroke-linecap:butt;stroke-linejoin:round;stroke-miterlimit:10;stroke-dasharray:none;stroke-opacity:1"
             id="path1515" /></g><g
           id="g1517"
           transform="matrix(2.011574,0,0,2.013889,51,146)"><path
             d="m 381.55,37.78 v 3.48"
             style="fill:none;stroke:#000000;stroke-width:1.07;stroke-linecap:butt;stroke-linejoin:round;stroke-miterlimit:10;stroke-dasharray:none;stroke-opacity:1"
             id="path1519" /></g><g
           id="g1521"
           transform="matrix(2.011574,0,0,2.013889,51,146)"><text
             transform="matrix(1,0,0,-1,105.66,26.17)"
             style="font-variant:normal;font-weight:normal;font-size:12px;font-family:Helvetica;-inkscape-font-specification:Helvetica;writing-mode:lr-tb;fill:#000000;fill-opacity:1;fill-rule:nonzero;stroke:none"
             id="text1525"><tspan
               x="0 8.0039997 14.676 21.348 24.684 31.356001 38.028 44.700001"
               y="0"
               sodipodi:role="line"
               id="tspan1523">Sep 2014</tspan></text></g><g
           id="g1527"
           transform="matrix(2.011574,0,0,2.013889,51,146)"><text
             transform="matrix(1,0,0,-1,230.85,26.17)"
             style="font-variant:normal;font-weight:normal;font-size:12px;font-family:Helvetica;-inkscape-font-specification:Helvetica;writing-mode:lr-tb;fill:#000000;fill-opacity:1;fill-rule:nonzero;stroke:none"
             id="text1531"><tspan
               x="0 8.6639996 15.156 21.156 24.492001 31.164 37.835999 44.507999"
               y="0"
               sodipodi:role="line"
               id="tspan1529">Nov 2014</tspan></text></g><g
           id="g1533"
           transform="matrix(2.011574,0,0,2.013889,51,146)"><text
             transform="matrix(1,0,0,-1,356.98,26.17)"
             style="font-variant:normal;font-weight:normal;font-size:12px;font-family:Helvetica;-inkscape-font-specification:Helvetica;writing-mode:lr-tb;fill:#000000;fill-opacity:1;fill-rule:nonzero;stroke:none"
             id="text1537"><tspan
               x="0 5.7600002 12.432 19.104 22.440001 29.112 35.784 42.456001"
               y="0"
               sodipodi:role="line"
               id="tspan1535">Jan 2015</tspan></text></g><g
           id="g1539"
           transform="matrix(2.011574,0,0,2.013889,51,146)"><text
             transform="matrix(1,0,0,-1,224.48,10.05)"
             style="font-variant:normal;font-weight:normal;font-size:14px;font-family:Helvetica;-inkscape-font-specification:Helvetica;writing-mode:lr-tb;fill:#000000;fill-opacity:1;fill-rule:nonzero;stroke:none"
             id="text1543"><tspan
               x="0 8.5539999 11.662 23.323999"
               y="0"
               sodipodi:role="line"
               id="tspan1541">Time</tspan></text></g><g
           id="g1545"
           transform="matrix(2.011574,0,0,2.013889,51,146)"><text
             transform="matrix(0,1,1,0,21.3,67.53)"
             style="font-variant:normal;font-weight:normal;font-size:14px;font-family:Helvetica;-inkscape-font-specification:Helvetica;writing-mode:lr-tb;fill:#000000;fill-opacity:1;fill-rule:nonzero;stroke:none"
             id="text1549"><tspan
               x="0 12.796 20.58 28.364 35.363998 38.472 45.472 49.363998 57.147999 64.652 74.760002 78.652 85.652 93.435997 100.436 108.22"
               y="0"
               sodipodi:role="line"
               id="tspan1547">Weekly new cases</tspan></text></g><path
           d="m 258.1117,551.2146 c 0,2.175 1.7702,3.9472 3.9427,3.9472 2.1523,0 3.9225,-1.7722 3.9225,-3.9472 0,-2.1549 -1.7702,-3.9271 -3.9225,-3.9271 -2.1725,0 -3.9427,1.7722 -3.9427,3.9271"
           style="fill:#000000;fill-opacity:1;fill-rule:nonzero;stroke:none"
           id="path1551" /><g
           id="g1553"
           transform="matrix(2.011574,0,0,2.013889,51,146)"><text
             transform="matrix(1,0,0,-1,114.28,196.9)"
             style="font-variant:normal;font-weight:normal;font-size:12px;font-family:Helvetica;-inkscape-font-specification:Helvetica;writing-mode:lr-tb;fill:#000000;fill-opacity:1;fill-rule:nonzero;stroke:none"
             id="text1557"><tspan
               x="0 9.3360004 16.007999 22.007999 28.68 33.035999 38.736 45.408001 48.743999 51.408001 58.080002 64.751999"
               y="0"
               sodipodi:role="line"
               id="tspan1555">Observations</tspan></text></g><path
           d="m 248.9992,454.7694 h 26.11023 v 26.14028 H 248.9992 Z"
           style="fill:#000000;fill-opacity:0.502;fill-rule:nonzero;stroke:none"
           id="path1559" /><path
           d="m 248.9992,454.7694 h 26.11023 v 26.14028 H 248.9992 Z"
           style="fill:#000000;fill-opacity:0.251;fill-rule:nonzero;stroke:none"
           id="path1561" /><g
           id="g1563"
           transform="matrix(2.011574,0,0,2.013889,51,146)"><path
             d="m 99.16,159.81 h 11.52"
             style="fill:none;stroke:#000000;stroke-width:1.07;stroke-linecap:butt;stroke-linejoin:round;stroke-miterlimit:10;stroke-dasharray:none;stroke-opacity:1"
             id="path1565" /></g><g
           id="g1567"
           transform="matrix(2.011574,0,0,2.013889,51,146)"><path
             d="m 99.16,159.81 h 11.52"
             style="fill:none;stroke:#000000;stroke-width:1.07;stroke-linecap:butt;stroke-linejoin:round;stroke-miterlimit:10;stroke-dasharray:none;stroke-opacity:0.251"
             id="path1569" /></g><g
           id="g1571"
           transform="matrix(2.011574,0,0,2.013889,51,146)"><path
             d="m 99.16,159.81 h 11.52"
             style="fill:none;stroke:#000000;stroke-width:1.07;stroke-linecap:butt;stroke-linejoin:round;stroke-miterlimit:10;stroke-dasharray:none;stroke-opacity:0.251"
             id="path1573" /></g><path
           d="m 248.9992,425.7694 h 26.11023 v 26.14028 H 248.9992 Z"
           style="fill:#cd4f39;fill-opacity:0.502;fill-rule:nonzero;stroke:none"
           id="path1575" /><path
           d="m 248.9992,425.7694 h 26.11023 v 26.14028 H 248.9992 Z"
           style="fill:#cd4f39;fill-opacity:0.251;fill-rule:nonzero;stroke:none"
           id="path1577" /><g
           id="g1579"
           transform="matrix(2.011574,0,0,2.013889,51,146)"><path
             d="m 99.16,145.41 h 11.52"
             style="fill:none;stroke:#cd4f39;stroke-width:1.07;stroke-linecap:butt;stroke-linejoin:round;stroke-miterlimit:10;stroke-dasharray:2.13, 2.13;stroke-dashoffset:0;stroke-opacity:1"
             id="path1581" /></g><g
           id="g1583"
           transform="matrix(2.011574,0,0,2.013889,51,146)"><path
             d="m 99.16,145.41 h 11.52"
             style="fill:none;stroke:#cd4f39;stroke-width:1.07;stroke-linecap:butt;stroke-linejoin:round;stroke-miterlimit:10;stroke-dasharray:none;stroke-opacity:0.251"
             id="path1585" /></g><g
           id="g1587"
           transform="matrix(2.011574,0,0,2.013889,51,146)"><path
             d="m 99.16,145.41 h 11.52"
             style="fill:none;stroke:#cd4f39;stroke-width:1.07;stroke-linecap:butt;stroke-linejoin:round;stroke-miterlimit:10;stroke-dasharray:none;stroke-opacity:0.251"
             id="path1589" /></g><g
           id="g1591"
           transform="matrix(2.011574,0,0,2.013889,51,146)"><text
             transform="matrix(1,0,0,-1,114.28,155.51)"
             style="font-variant:normal;font-weight:normal;font-size:12px;font-family:Helvetica;-inkscape-font-specification:Helvetica;writing-mode:lr-tb;fill:#000000;fill-opacity:1;fill-rule:nonzero;stroke:none"
             id="text1595"><tspan
               x="0 9.9960003 16.667999 23.34 30.011999 32.675999 36.012001 39.348 42.012001"
               y="0"
               sodipodi:role="line"
               id="tspan1593">Model fit</tspan></text></g><g
           id="g1597"
           transform="matrix(2.011574,0,0,2.013889,51,146)"><text
             transform="matrix(1,0,0,-1,114.28,141.11)"
             style="font-variant:normal;font-weight:normal;font-size:12px;font-family:Helvetica;-inkscape-font-specification:Helvetica;writing-mode:lr-tb;fill:#000000;fill-opacity:1;fill-rule:nonzero;stroke:none"
             id="text1601"><tspan
               x="0 6.9720001 13.644 17.639999 24.312 30.312 36.984001 42.984001"
               y="0"
               sodipodi:role="line"
               id="tspan1599">Forecast</tspan></text></g></g></g></g></svg>
